<svg width="32" height="28" viewBox="0 0 32 28" fill="none" xmlns="http://www.w3.org/2000/svg">
<path d="M1 8.10547C1 4.94962 3.87099 1 8.58531 1H8.58563C10.4199 1 12.1577 2.05067 13.7476 3.52846C15.0116 4.70325 16.9887 4.70325 18.2527 3.52846C19.8426 2.05067 21.5804 1 23.4147 1C28.1288 1 31 4.94992 31 8.10547C31 11.4627 29.1089 14.8289 26.2662 18.0175C23.4406 21.1869 19.7993 24.0426 16.5631 26.3716C16.2259 26.6143 15.7741 26.6143 15.4369 26.3716C12.2007 24.0427 8.55948 21.1873 5.73386 18.0179C2.89116 14.8294 1 11.4631 1 8.10547Z" fill="#E80606" stroke="white"/>
</svg>
